<svg xmlns="http://www.w3.org/2000/svg" width="100" height="72" viewBox="0 0 100 72"><path fill="#ec1d23" d="M81.409 18.682a18.5 18.5 0 0 0-7.276 1.487 18.52 18.52 0 0 0-11.229 17.112c4.754.032 9.307 1.775 12.696 4.859 3.793 3.452 5.772 8.261 5.421 13.172l.42.415A18.49 18.49 0 0 0 98.512 44.2a18.55 18.55 0 0 0-4.15-20.2 18.47 18.47 0 0 0-12.952-5.32"/><path fill="#43b9e9" d="M44.57.28a18.5 18.5 0 0 0-7.275 1.487 18.52 18.52 0 0 0-11.23 17.112c4.754.032 9.308 1.775 12.696 4.858C42.554 27.19 44.534 32 44.183 36.91l.42.415a18.49 18.49 0 0 0 17.07-11.527A18.55 18.55 0 0 0 57.522 5.6 18.47 18.47 0 0 0 44.57.28"/><path fill="#7bc049" d="M42.315 42.611c0 5.873-9.472 10.634-21.156 10.634S.003 48.485.003 42.611c0-5.873 9.472-10.634 21.156-10.634s21.156 4.761 21.156 10.634"/><path fill="#eee816" d="M79.147 61.148c0 5.873-9.471 10.634-21.155 10.634S36.836 67.02 36.836 61.148s9.471-10.634 21.156-10.634 21.155 4.761 21.155 10.634"/></svg>