<svg xmlns="http://www.w3.org/2000/svg" width="59" height="100" viewBox="0 0 59 100"><path fill="#929497" d="M50.094 89.869c0 1.058-.87 2.01-1.942 2.01H10.985c-1.082 0-1.952-.952-1.952-2.01V63.098c0-1.058.87-1.905 1.952-1.905h37.167c1.072 0 1.942.847 1.942 1.905zm-1.613-36.717H10.646c-5.476 0-9.944 4.444-9.944 9.946v26.876c0 5.397 4.468 9.947 9.944 9.947H48.48c5.487 0 9.945-4.55 9.945-9.947V63.098a9.943 9.943 0 0 0-9.945-9.946"/><path fill="#221e1f" d="M50.094 37.597c0 .952-.87 1.905-1.942 1.905H10.985c-1.082 0-1.952-.953-1.952-1.905V10.721c0-1.058.87-1.905 1.952-1.905h37.167c1.072 0 1.942.847 1.942 1.905zM48.481.774H10.646C5.17.774.702 5.218.702 10.721v26.876c0 5.502 4.468 9.946 9.944 9.946H48.48a9.943 9.943 0 0 0 9.945-9.946V10.721A9.943 9.943 0 0 0 48.48.774"/></svg>