<svg xmlns="http://www.w3.org/2000/svg" width="76" height="100" viewBox="0 0 76 100"><path fill="#b80a41" d="M68.13 78.264c-4.937-1.48-10.61-.499-10.61-.499s-16.031 1.551-24.376-.22C20.209 75.273 20.65 61.31 20.65 61.31s-.441-9.255 7.353-21.777C37.62 24.073 48.233 21.3 48.233 21.3s2.654-.995 5.141.333c1.547 8.976 10.224 8.921 10.224 8.921s12.494.833 11.884-14.349C74.045 3.736 62.05 2.018 57.02.856 41.93-1.86 32.148 6.23 32.148 6.23s-10.115 5.487-22.22 24.603C1.691 42.69.698 52 .698 52s-.995 2.218-.61 12.082c-.218 7.7 2.655 13.296 2.655 13.296S7.11 90.625 20.928 96.054c8.4 3.491 20.673 3.436 20.673 3.436s11.883-.166 21.003-.666c4.974.388 7.352-2.216 7.352-2.216s5.58-3.656 5.029-10.03c0 0-1.082-6.582-6.854-8.314"/></svg>