<svg xmlns="http://www.w3.org/2000/svg" width="87" height="100" viewBox="0 0 87 100"><linearGradient id="a" x1="-30.446" x2="43.506" y1="41.081" y2="99.803" gradientUnits="userSpaceOnUse"><stop offset="0" stop-color="#211b2c"/><stop offset="1" stop-color="#c0bdfb"/></linearGradient><path fill="url(#a)" d="M.26 25.096v49.796l.013.012 43.233 24.899V82.676L28.36 73.95l-13.22-7.615V51.094l-.012-17.429zm22.671 13.162v23.69l20.575 11.857V50.103Z"/><radialGradient id="b" cx="45.275" cy=".496" r="43.185" fx="45.275" fy=".496" gradientUnits="userSpaceOnUse"><stop offset="0" stop-color="#8775ae"/><stop offset="1" stop-color="#d5cfe9"/></radialGradient><path fill="url(#b)" d="M43.494.197.26 25.096l14.867 8.569 15.146-8.726 13.232-7.615 13.22 7.615.012.012 5.477 3.142 14.855-8.557L43.506.197zm0 26.24L22.93 38.282l20.575 11.845v-.024l20.502-11.857zM22.93 61.972v.012l20.563 11.845z"/><linearGradient id="c" x1="22.931" x2="118.038" y1="39.881" y2="94.652" gradientUnits="userSpaceOnUse"><stop offset="0" stop-color="#2a2136"/><stop offset="1" stop-color="#b38ee9"/></linearGradient><path fill="url(#c)" d="M86.74 25.096 43.505 50.103v23.702l20.575-11.857V55.59l7.79-4.484v15.229L43.507 82.676v17.127L86.74 74.904Z"/><linearGradient id="d" x1="-30.446" x2="43.506" y1="41.081" y2="99.803" gradientUnits="userSpaceOnUse"><stop offset="0" stop-color="#211b2c"/><stop offset="1" stop-color="#c0bdfb"/></linearGradient><path fill="url(#d)" d="M.26 25.096v49.796l.013.012 43.233 24.899V82.676L28.36 73.95l-13.22-7.615V51.094l-.012-17.429zm22.671 13.162v23.69l20.575 11.857V50.103Z"/></svg>