<svg xmlns="http://www.w3.org/2000/svg" width="100" height="43" viewBox="0 0 100 43"><path fill="#d40000" d="M29.067.07v42.885H.12Z"/><path fill="#0a0" d="M59.292.155h14.134v42.857H59.292ZM76.47.175q-.227-.006-.51-.011l-.086 14.682h.034V14.8q.36-.045.73-.053L79.604.358C78.447.218 77.357.203 76.47.175m5.442.408-4.167 14.229q.558.076 1.085.24l6.844-13.53a21 21 0 0 0-3.762-.94m6.05 1.894-8.185 12.944c.273.131.539.283.79.448L91.083 4.346a21 21 0 0 0-3.12-1.869m5.087 3.478L81.286 16.413c.28.244.544.51.783.796l13.84-8.028a21.4 21.4 0 0 0-2.86-3.226m3.934 4.873L82.58 17.901q.249.385.443.803l15.813-3.79a21.2 21.2 0 0 0-1.853-4.086m2.445 6.263-16.114 2.347c.165.496.276 1.017.324 1.556h16.263c-.038-1.335-.2-2.64-.473-3.903m-15.79 5.19a6.865 6.865 0 0 1-7.73 6.143v-.296h-.034v14.824c1.22-.008 1.85-.059 2.8-.059 11.507 0 20.877-9.168 21.227-20.613Z"/><path fill="#d40000" d="M53.29.07v42.885H24.344Z"/></svg>