<svg xmlns="http://www.w3.org/2000/svg" width="100" height="88" viewBox="0 0 100 88"><path fill="#cf3311" d="M60.817 1.105c3.708.554 7.495 1.842 9.47 2.443 3.979 1.21 10.437 4.97 12.718 6.774 1.079.853 3.348 3.086 4.226 4.21.856 1.096 2.49 3.468 3.534 4.93 1.66 2.412 3.615 6.006 5.273 9.312 1.853 3.695 1.98 4.765 2.54 7.854l1.224 5.445c.116.941.21 4.395-1.827 4.879s-3.92-.451-4.808-1.818c-1.229-1.892-1.06-4.576-2.449-7.65-1.083-2.483-1.557-6.093-3.287-8.69l-1.358-2.282c-2.4-3.678-4.904-6.598-6.397-8.502-1.314-1.6-3.77-3.774-6.097-5.321-2.152-1.299-5.631-2.78-8.14-3.542-.8-.259-4.223-1.26-6.35-1.541-2.886-.323-4.785-.777-7.528-.97-3.386-.237-5.01-.537-9.403-.026-1.664.449-4.3.627-6.673 1.53a59 59 0 0 0-7.193 3.56c-2.81 1.532-7.076 4.667-9.904 7.344-2.851 3.031-4.277 4.657-6.243 8.5-.87 1.9-2.554 4.84-3.233 6.917-.464 2.107-1.349 6.038-1.2 7.947.067 3.42-.233 4.124.025 6.92.01 2.516.84 4.261 1.185 6.32.296 1.422 1.667 6.344 2.516 7.486 3.857 8.268 9.034 11.848 14.803 14.431 1.627.824 6.715 2.179 8.188 2.567 2.51.45 5.813.75 8.993.812 3.345.065 7.956-.386 10.754-1.41 3.029-1.108 6.53-2.683 6.49-2.639 1.405-.77 3.55-2.028 4.217-2.581 1.291-.823 2.069-1.142 2.834-1.934 1.103-.96 1.771-1.514 2.607-2.704a54 54 0 0 1 1.924-2.605c.775-1.263 1.22-2.593 1.976-4.24.904-2.434.764-2.317.936-4.903.162-.749-.018-3.267-.154-3.695-.408-2.324-.263-4.374-.798-6.63-.722-3.053-1.323-5.337-2.244-8.266-.867-3.298-3.413-6.353-5.324-8.535-1.183-1.352-4.856-4.547-9.951-6.542-1.435-.48-3.783-1.025-5.274-1.295-3.184-.331-3.702-.119-6.75.103-1.049.182-3.484.677-4.38.99-2.617.915-3.58 1.497-6.257 3.128-1.246.72-2.185 1.27-3.459 2.458-1.016.936-1.743 2.527-2.566 3.46-1.128 1.526-2.383 3.563-3.225 5.76-.913 2.185-1.208 5.261-1.069 7.24 0 1.51.413 4.27.577 4.875s.573 2.48.662 2.856 1.07 2.36 1.204 2.647c.553 1.171 1.611 2.853 3.394 4.57 1.316 1.43 3.86 2.833 5.763 3.376 1.707.932 4.586 1.091 6.18 1.094.783-.047 2.786-.17 3.83-.419 2.12-.506 2.51-.52 4.694-1.463 1.96-.904 3.29-1.23 4.655-2.233 0 0 1.873-1.46 2.725-2.53.45-.563 1.22-3.251 1.083-4.916-.064-2.28.27-3.572-.198-5.447s-1.266-4.049-2.13-5.388c-.877-1.356-2.761-2.678-4.905-3.73-1.2-.59-4.045-1.137-5.252-1.28-2.292-.27-4.21.765-5.373 1.949-1.01 1.148-3.005 3.532-2.21 5.997.72 2.23 1.588 4.607 4.95 4.43 2.308.478 4.977-.215 5.866.192 1.32.745 1.826 2.391 1.347 3.539-.334 2.213-2.465 2.478-4.74 2.647-2.034.339-7.202-.652-8.338-1.498-.761-.45-1.928-1.533-2.75-2.263-.59-.526-1.259-1.698-1.716-2.54-.56-1.034-.843-1.795-.988-2.469-.17-.8-.523-2.327-.39-3.855.09-1.03.367-1.469.643-2.975.55-1.708 1.233-3.008 2.332-4.49 1.43-1.444 3.249-3.165 5.023-3.964 1.565-.823 4.306-1.125 6.786-.981 2.012.191 4.392.435 5.965.96 2.693.957 3.463 1.148 5.673 2.535 1.869 1.15 3.748 3.266 4.797 5.019 2.23 4.542 3.51 9.594 2.58 16.396-.076 1.149-.436 2.272-1.156 3.793-.665 1.404-1.831 3.112-3.581 4.398-.705.649-1.816 1.448-2.72 1.915-1.285.775-2.148 1.179-3.489 1.849-1.176.55-2.548 1.179-4.336 1.673-1.939.763-3.426.794-5.864 1.156-2.4.598-8.965.17-12.875-1.545-2.67-1.117-5.665-3.085-7.942-5.484-1.265-1.319-2.502-3.712-2.866-4.201-1.81-3.463-2.165-6.72-2.455-7.405-.395-.93-.591-3.014-.855-4.44-.298-1.6-.114-8.305 1.51-12.61.914-1.713 1.45-3.24 2.069-4.043 1.112-1.574 1.65-2.558 2.596-3.675 1.427-1.72 2.466-3.125 3.855-4.115 3.541-2.865 6.5-4.376 10.5-6.267 4.971-2.014 6.464-1.597 11.169-1.522 2.116.018 5.197.68 6.711.954 2.812.373 4.423 1.047 6.325 1.575 2.034.565 3.21 1.466 4.879 2.47 1.374.882 2.99 2.091 4.058 3.073 2.732 1.993 4.05 4.087 5.724 6.66.303.431 2.291 4.647 2.608 5.82.147.588.597 2.276.886 3.262.371 1.564.551 2.95.965 4.715.371 1.819 1.002 5.253 1.276 8.462.46 2.753-.277 8.373-.712 10.098-.967 3.217-2.66 7.143-6.002 10.924-1.42 1.674-2.929 2.971-4.672 4.38-1.334 1.107-2.478 1.75-4.538 2.975-2.798 1.66-4.927 2.721-8.85 4.247-1.596.51-3.608 1.18-5.777 1.627-4.2.386-8.517.756-13.23.199-4.712-.558-9.433-1.879-12.221-2.731-1.539-.574-4.52-1.818-5.77-2.487-.813-.411-3.539-2.266-4.002-2.712-1.868-1.15-6.05-5.062-8.749-8.709-.591-1.126-2.718-4.507-3.18-5.988-1.226-2.505-2.08-5.535-2.583-6.83-.53-3.021-1.425-4.967-1.774-8 .04-.714-.145-2.394-.307-3.323.237-2.076-.08-4.033.334-6.292.364-1.908.846-2.704.96-4.428.112-.737 1.066-2.955 1.32-3.942.77-1.626.961-2.965 1.966-4.781 1.448-2.83 2.961-6.087 5.287-8.932.664-.882 2.547-2.998 3.19-3.732 1.516-1.508 2.407-1.747 4.128-3.261.179-.112 1.315-1.401 2.505-1.844 1.972-1.516 3.676-2.072 5.553-3.45 3.762-1.865 5.133-2.494 8.868-4.04 2.157-.766 5.167-1.19 6.25-1.607 2.061-.127 4.154-.782 6.322-.652 2.435-.022 4.888.15 7.334.372 1.656.1 3.808.18 6.727.81"/></svg>