<svg xmlns="http://www.w3.org/2000/svg" width="100" height="100" viewBox="0 0 100 100"><path d="m28.349 19.34 6.638 13.492 3.452-1.322 11.492-20.504-13.906-5.41ZM60.899 31.31l10.619-11.968 14.11 5.44v37.715L64.873 32.834Z"/><path d="m71.513 19.34 14.114-5.43 14.112 5.43-14.112 5.443ZM.122 19.34l14.115-5.43 14.111 5.43-14.111 5.443ZM63.837 5.613 49.93.243 36.024 5.596l13.906 5.41Z"/><path d="M14.234 24.783.12 19.339v59.414l14.114 5.929V53.114l20.753 40.29 14.943 6.322V38.557l-14.943-5.725v31.054ZM85.624 84.682 64.872 57.596V72.4l4.24 5.94Z"/></svg>